<svg id="svg" version="1.1" xmlns="http://www.w3.org/2000/svg" xmlns:xlink="http://www.w3.org/1999/xlink" width="400" height="400" viewBox="0, 0, 400,400"><g id="svgg"><path id="path0" d="M161.600 67.599 C 148.484 71.447,127.204 80.956,127.199 82.971 C 127.172 94.348,126.584 98.140,123.882 104.363 C 117.292 119.538,100.578 129.857,84.672 128.573 L 81.400 128.309 79.138 132.254 C 73.304 142.432,69.336 151.985,65.984 163.921 L 64.804 168.124 68.521 171.762 C 85.611 188.492,84.797 214.834,66.689 231.060 L 64.836 232.720 65.828 236.460 C 68.757 247.506,74.967 262.373,79.905 270.158 L 81.400 272.516 87.400 272.588 C 109.856 272.856,127.566 290.962,127.154 313.232 C 127.052 318.756,126.799 318.258,130.896 320.593 C 140.511 326.074,152.133 330.865,162.906 333.788 L 166.812 334.849 170.506 331.084 C 186.759 314.522,213.458 314.955,228.876 332.030 L 231.400 334.825 234.600 333.991 C 245.873 331.052,258.558 325.833,268.100 320.208 L 271.200 318.380 271.200 313.016 C 271.200 293.625,283.529 278.176,303.000 273.170 C 304.134 272.878,307.595 272.633,310.990 272.604 L 316.979 272.552 318.300 270.376 C 325.379 258.711,335.517 232.000,332.865 232.000 C 332.133 232.000,326.257 225.750,324.459 223.060 C 313.364 206.455,315.923 184.322,330.475 171.040 L 333.361 168.406 332.867 166.014 C 331.078 157.350,324.935 142.311,318.669 131.255 L 317.000 128.311 313.728 128.574 C 291.128 130.393,271.202 111.427,271.200 88.095 L 271.200 82.790 268.954 81.353 C 261.676 76.697,247.573 70.700,236.217 67.431 C 231.831 66.169,231.018 66.151,230.221 67.300 C 227.834 70.741,220.963 76.196,216.400 78.273 C 200.057 85.714,181.841 82.079,169.444 68.904 C 166.738 66.027,166.879 66.051,161.600 67.599 M211.045 121.815 C 269.714 130.272,298.432 199.018,263.502 247.393 C 261.298 250.446,254.981 257.867,254.411 258.073 C 254.217 258.143,253.191 259.017,252.129 260.015 C 245.069 266.655,232.215 273.882,222.000 276.954 C 161.030 295.287,103.781 236.939,123.536 176.600 C 135.986 138.575,171.794 116.157,211.045 121.815 M212.600 136.291 C 208.939 138.560,184.327 153.455,171.600 161.104 C 162.065 166.834,160.548 167.909,157.788 170.888 C 140.519 189.524,153.811 219.857,179.200 219.755 C 186.759 219.724,188.763 218.924,203.600 210.006 C 216.736 202.111,217.814 201.706,221.481 203.280 C 229.081 206.545,228.727 215.334,220.800 220.166 C 217.193 222.365,198.255 233.780,174.800 247.893 C 166.990 252.592,160.551 256.653,160.492 256.918 C 160.117 258.591,177.714 266.849,181.753 266.897 C 182.681 266.908,186.424 264.842,196.400 258.811 C 203.770 254.356,215.560 247.266,222.600 243.055 C 243.130 230.777,247.012 225.707,246.992 211.200 C 246.970 195.862,237.046 184.509,221.796 182.378 C 213.588 181.231,209.419 182.636,194.600 191.546 C 188.220 195.383,182.190 198.776,181.200 199.087 C 175.587 200.851,169.813 195.641,170.542 189.469 C 170.992 185.656,172.101 184.693,185.000 176.919 C 191.380 173.075,204.520 165.150,214.200 159.310 C 223.880 153.469,233.292 147.792,235.116 146.693 C 236.940 145.595,238.368 144.494,238.289 144.248 C 237.696 142.393,219.882 133.896,216.868 134.030 C 216.501 134.046,214.580 135.064,212.600 136.291 " stroke="none" fill="#fbfaea" fill-rule="evenodd"></path><path id="path1" d="M178.300 0.274 C 175.906 0.359,174.000 0.598,174.000 0.814 C 174.000 1.028,172.663 1.200,171.000 1.200 C 169.267 1.200,168.000 1.369,168.000 1.600 C 168.000 1.822,166.941 2.000,165.624 2.000 C 164.317 2.000,163.136 2.180,163.000 2.400 C 162.864 2.620,161.964 2.800,161.000 2.800 C 160.036 2.800,159.148 2.961,159.026 3.158 C 158.905 3.355,158.039 3.622,157.103 3.751 C 156.166 3.881,155.175 4.020,154.900 4.060 C 154.625 4.101,154.400 4.283,154.400 4.467 C 154.400 4.650,153.669 4.800,152.776 4.800 C 151.796 4.800,151.251 4.958,151.400 5.200 C 151.551 5.444,150.937 5.600,149.824 5.600 C 148.821 5.600,148.000 5.780,148.000 6.000 C 148.000 6.220,147.370 6.400,146.600 6.400 C 145.830 6.400,145.200 6.580,145.200 6.800 C 145.200 7.020,144.469 7.200,143.576 7.200 C 142.596 7.200,142.051 7.358,142.200 7.600 C 142.347 7.838,141.879 8.000,141.047 8.000 C 140.277 8.000,139.536 8.180,139.400 8.400 C 139.264 8.620,138.623 8.800,137.976 8.800 C 137.329 8.800,136.800 8.980,136.800 9.200 C 136.800 9.420,136.260 9.600,135.600 9.600 C 134.940 9.600,134.400 9.780,134.400 10.000 C 134.400 10.220,133.860 10.400,133.200 10.400 C 132.540 10.400,132.000 10.580,132.000 10.800 C 132.000 11.020,131.572 11.200,131.049 11.200 C 130.526 11.200,129.874 11.470,129.600 11.800 C 129.326 12.130,128.764 12.400,128.351 12.400 C 127.938 12.400,127.600 12.580,127.600 12.800 C 127.600 13.020,127.060 13.200,126.400 13.200 C 125.740 13.200,125.200 13.380,125.200 13.600 C 125.200 13.820,124.671 14.000,124.024 14.000 C 123.377 14.000,122.736 14.180,122.600 14.400 C 122.464 14.620,122.003 14.800,121.576 14.800 C 121.149 14.800,120.800 14.980,120.800 15.200 C 120.800 15.420,120.440 15.600,120.000 15.600 C 119.560 15.600,119.200 15.780,119.200 16.000 C 119.200 16.220,118.840 16.400,118.400 16.400 C 117.960 16.400,117.600 16.580,117.600 16.800 C 117.600 17.020,117.220 17.200,116.756 17.200 C 115.748 17.200,110.000 19.975,110.000 20.461 C 110.000 20.647,109.640 20.800,109.200 20.800 C 108.760 20.800,108.400 20.980,108.400 21.200 C 108.400 21.420,107.950 21.600,107.400 21.600 C 106.850 21.600,106.400 21.780,106.400 22.000 C 106.400 22.220,106.040 22.400,105.600 22.400 C 105.160 22.400,104.800 22.580,104.800 22.800 C 104.800 23.020,104.564 23.200,104.275 23.200 C 103.987 23.200,103.364 23.560,102.892 24.000 C 102.420 24.440,101.756 24.800,101.417 24.800 C 101.078 24.800,100.800 24.980,100.800 25.200 C 100.800 25.420,100.566 25.600,100.280 25.600 C 99.544 25.600,97.607 26.541,97.603 26.900 C 97.601 27.065,97.330 27.200,97.000 27.200 C 96.670 27.200,96.400 27.470,96.400 27.800 C 96.400 28.130,96.080 28.400,95.688 28.400 C 95.297 28.400,94.717 28.760,94.400 29.200 C 94.083 29.640,93.503 30.000,93.112 30.000 C 92.720 30.000,92.400 30.180,92.400 30.400 C 92.400 30.620,92.074 30.800,91.675 30.800 C 91.277 30.800,90.564 31.160,90.092 31.600 C 89.620 32.040,88.996 32.400,88.705 32.400 C 88.414 32.400,87.917 32.760,87.600 33.200 C 87.283 33.640,86.786 34.000,86.496 34.000 C 86.206 34.000,85.240 34.721,84.350 35.602 C 83.460 36.484,82.600 37.123,82.439 37.024 C 82.278 36.924,81.893 37.193,81.585 37.621 C 81.276 38.050,80.815 38.400,80.560 38.400 C 80.305 38.400,79.355 39.120,78.448 40.000 C 77.541 40.880,76.529 41.600,76.200 41.600 C 75.870 41.600,75.600 41.750,75.600 41.932 C 75.600 42.115,75.150 42.506,74.600 42.800 C 74.050 43.094,73.600 43.575,73.600 43.868 C 73.600 44.160,73.317 44.400,72.971 44.400 C 72.226 44.400,71.131 45.397,71.486 45.752 C 71.622 45.889,71.524 46.000,71.267 46.000 C 71.011 46.000,70.059 46.720,69.152 47.600 C 68.245 48.480,67.302 49.200,67.056 49.200 C 66.810 49.200,65.140 50.730,63.344 52.600 C 61.548 54.470,59.966 56.000,59.829 56.000 C 59.503 56.000,56.000 59.503,56.000 59.829 C 56.000 59.966,54.470 61.548,52.600 63.344 C 50.730 65.140,49.200 66.810,49.200 67.056 C 49.200 67.302,48.480 68.245,47.600 69.152 C 46.720 70.059,46.000 71.011,46.000 71.267 C 46.000 71.524,45.889 71.622,45.752 71.486 C 45.397 71.131,44.400 72.226,44.400 72.971 C 44.400 73.317,44.160 73.600,43.868 73.600 C 43.575 73.600,43.094 74.050,42.800 74.600 C 42.506 75.150,42.115 75.600,41.932 75.600 C 41.750 75.600,41.600 75.870,41.600 76.200 C 41.600 76.529,40.880 77.541,40.000 78.448 C 39.120 79.355,38.400 80.305,38.400 80.560 C 38.400 80.815,38.050 81.276,37.621 81.585 C 37.193 81.893,36.924 82.278,37.024 82.439 C 37.123 82.600,36.484 83.460,35.602 84.350 C 34.721 85.240,34.000 86.206,34.000 86.496 C 34.000 86.786,33.640 87.283,33.200 87.600 C 32.760 87.917,32.400 88.414,32.400 88.705 C 32.400 88.996,32.040 89.620,31.600 90.092 C 31.160 90.564,30.800 91.277,30.800 91.675 C 30.800 92.074,30.620 92.400,30.400 92.400 C 30.180 92.400,30.000 92.720,30.000 93.112 C 30.000 93.503,29.640 94.083,29.200 94.400 C 28.760 94.717,28.400 95.297,28.400 95.688 C 28.400 96.080,28.130 96.400,27.800 96.400 C 27.470 96.400,27.200 96.678,27.200 97.017 C 27.200 97.356,26.840 98.020,26.400 98.492 C 25.960 98.964,25.600 99.677,25.600 100.075 C 25.600 100.474,25.420 100.800,25.200 100.800 C 24.980 100.800,24.800 101.160,24.800 101.600 C 24.800 102.040,24.620 102.400,24.400 102.400 C 24.180 102.400,24.000 102.720,24.000 103.112 C 24.000 103.503,23.640 104.083,23.200 104.400 C 22.760 104.717,22.400 105.297,22.400 105.688 C 22.400 106.080,22.220 106.400,22.000 106.400 C 21.780 106.400,21.600 106.850,21.600 107.400 C 21.600 107.950,21.420 108.400,21.200 108.400 C 20.980 108.400,20.800 108.745,20.800 109.167 C 20.800 109.588,20.647 109.993,20.461 110.067 C 19.915 110.281,18.000 113.957,18.000 114.791 C 18.000 115.210,17.820 115.664,17.600 115.800 C 17.380 115.936,17.200 116.397,17.200 116.824 C 17.200 117.251,17.020 117.600,16.800 117.600 C 16.580 117.600,16.400 117.960,16.400 118.400 C 16.400 118.840,16.220 119.200,16.000 119.200 C 15.780 119.200,15.600 119.560,15.600 120.000 C 15.600 120.440,15.420 120.800,15.200 120.800 C 14.980 120.800,14.800 121.340,14.800 122.000 C 14.800 122.660,14.620 123.200,14.400 123.200 C 14.180 123.200,14.000 123.650,14.000 124.200 C 14.000 124.750,13.820 125.200,13.600 125.200 C 13.380 125.200,13.200 125.740,13.200 126.400 C 13.200 127.060,13.020 127.600,12.800 127.600 C 12.580 127.600,12.400 127.938,12.400 128.351 C 12.400 128.764,12.130 129.326,11.800 129.600 C 11.470 129.874,11.200 130.526,11.200 131.049 C 11.200 131.572,11.020 132.000,10.800 132.000 C 10.580 132.000,10.400 132.540,10.400 133.200 C 10.400 133.860,10.220 134.400,10.000 134.400 C 9.780 134.400,9.600 134.940,9.600 135.600 C 9.600 136.260,9.420 136.800,9.200 136.800 C 8.980 136.800,8.800 137.329,8.800 137.976 C 8.800 138.623,8.620 139.264,8.400 139.400 C 8.180 139.536,8.000 140.277,8.000 141.047 C 8.000 141.879,7.838 142.347,7.600 142.200 C 7.358 142.051,7.200 142.596,7.200 143.576 C 7.200 144.469,7.020 145.200,6.800 145.200 C 6.580 145.200,6.400 145.830,6.400 146.600 C 6.400 147.370,6.220 148.000,6.000 148.000 C 5.780 148.000,5.600 148.821,5.600 149.824 C 5.600 150.937,5.444 151.551,5.200 151.400 C 4.955 151.249,4.800 151.872,4.800 153.005 C 4.800 154.118,4.561 155.097,4.200 155.457 C 3.870 155.787,3.600 156.674,3.600 157.429 C 3.600 158.183,3.420 158.800,3.200 158.800 C 2.974 158.800,2.800 159.933,2.800 161.400 C 2.800 162.867,2.626 164.000,2.400 164.000 C 2.180 164.000,2.000 164.900,2.000 166.000 C 2.000 167.100,1.820 168.000,1.600 168.000 C 1.365 168.000,1.200 169.389,1.200 171.367 C 1.200 173.704,1.047 174.784,0.700 174.900 C 0.307 175.031,0.200 180.489,0.200 200.400 C 0.200 220.311,0.307 225.769,0.700 225.900 C 1.040 226.013,1.200 227.016,1.200 229.033 C 1.200 230.744,1.369 232.000,1.600 232.000 C 1.822 232.000,2.000 233.059,2.000 234.376 C 2.000 235.683,2.180 236.864,2.400 237.000 C 2.620 237.136,2.800 238.036,2.800 239.000 C 2.800 239.964,2.980 240.864,3.200 241.000 C 3.420 241.136,3.600 241.742,3.600 242.347 C 3.600 242.952,3.864 243.796,4.187 244.224 C 4.510 244.651,4.780 245.866,4.787 246.924 C 4.795 248.101,4.955 248.751,5.200 248.600 C 5.444 248.449,5.600 249.063,5.600 250.176 C 5.600 251.179,5.780 252.000,6.000 252.000 C 6.220 252.000,6.400 252.630,6.400 253.400 C 6.400 254.170,6.580 254.800,6.800 254.800 C 7.020 254.800,7.200 255.531,7.200 256.424 C 7.200 257.404,7.358 257.949,7.600 257.800 C 7.838 257.653,8.000 258.129,8.000 258.976 C 8.000 259.759,8.180 260.400,8.400 260.400 C 8.620 260.400,8.800 261.030,8.800 261.800 C 8.800 262.570,8.980 263.200,9.200 263.200 C 9.420 263.200,9.600 263.740,9.600 264.400 C 9.600 265.060,9.780 265.600,10.000 265.600 C 10.220 265.600,10.400 266.151,10.400 266.824 C 10.400 267.537,10.567 267.944,10.800 267.800 C 11.032 267.657,11.200 268.046,11.200 268.727 C 11.200 269.373,11.470 270.126,11.800 270.400 C 12.130 270.674,12.400 271.236,12.400 271.649 C 12.400 272.062,12.580 272.400,12.800 272.400 C 13.020 272.400,13.200 272.940,13.200 273.600 C 13.200 274.260,13.380 274.800,13.600 274.800 C 13.820 274.800,14.000 275.250,14.000 275.800 C 14.000 276.350,14.180 276.800,14.400 276.800 C 14.620 276.800,14.800 277.340,14.800 278.000 C 14.800 278.660,14.980 279.200,15.200 279.200 C 15.420 279.200,15.600 279.560,15.600 280.000 C 15.600 280.440,15.780 280.800,16.000 280.800 C 16.220 280.800,16.400 281.160,16.400 281.600 C 16.400 282.040,16.580 282.400,16.800 282.400 C 17.020 282.400,17.200 282.749,17.200 283.176 C 17.200 283.603,17.380 284.064,17.600 284.200 C 17.820 284.336,18.000 284.790,18.000 285.209 C 18.000 286.043,19.915 289.719,20.461 289.933 C 20.647 290.007,20.800 290.412,20.800 290.833 C 20.800 291.255,20.980 291.600,21.200 291.600 C 21.420 291.600,21.600 292.050,21.600 292.600 C 21.600 293.150,21.780 293.600,22.000 293.600 C 22.220 293.600,22.400 293.920,22.400 294.312 C 22.400 294.703,22.760 295.283,23.200 295.600 C 23.640 295.917,24.000 296.497,24.000 296.888 C 24.000 297.280,24.180 297.600,24.400 297.600 C 24.620 297.600,24.800 297.960,24.800 298.400 C 24.800 298.840,24.980 299.200,25.200 299.200 C 25.420 299.200,25.600 299.526,25.600 299.925 C 25.600 300.323,25.960 301.036,26.400 301.508 C 26.840 301.980,27.200 302.644,27.200 302.983 C 27.200 303.322,27.470 303.600,27.800 303.600 C 28.130 303.600,28.400 303.920,28.400 304.312 C 28.400 304.703,28.760 305.283,29.200 305.600 C 29.640 305.917,30.000 306.497,30.000 306.888 C 30.000 307.280,30.180 307.600,30.400 307.600 C 30.620 307.600,30.800 307.870,30.800 308.200 C 30.800 308.530,30.980 308.800,31.200 308.800 C 31.420 308.800,31.600 309.160,31.600 309.600 C 31.600 310.040,31.780 310.400,32.000 310.400 C 32.220 310.400,32.400 310.688,32.400 311.040 C 32.400 311.391,32.940 312.183,33.600 312.800 C 34.260 313.417,34.800 314.143,34.800 314.415 C 34.800 314.686,35.246 315.321,35.791 315.826 C 36.336 316.332,36.831 316.980,36.891 317.269 C 36.951 317.557,37.495 318.271,38.100 318.857 C 38.705 319.442,39.200 320.137,39.200 320.400 C 39.200 320.663,39.740 321.383,40.400 322.000 C 41.060 322.617,41.600 323.350,41.600 323.629 C 41.600 323.908,42.410 324.913,43.400 325.862 C 44.390 326.810,45.200 327.870,45.200 328.217 C 45.200 328.564,45.380 328.736,45.600 328.600 C 45.820 328.464,46.000 328.549,46.000 328.790 C 46.000 329.030,46.585 329.827,47.300 330.560 C 48.978 332.282,50.000 333.539,50.000 333.881 C 50.000 334.030,51.350 335.451,53.000 337.038 C 54.650 338.625,56.000 340.035,56.000 340.172 C 56.000 340.497,59.503 344.000,59.828 344.000 C 59.965 344.000,61.375 345.350,62.962 347.000 C 64.549 348.650,65.970 350.000,66.119 350.000 C 66.461 350.000,67.718 351.022,69.440 352.700 C 70.173 353.415,70.970 354.000,71.210 354.000 C 71.451 354.000,71.536 354.180,71.400 354.400 C 71.264 354.620,71.446 354.800,71.805 354.800 C 72.508 354.800,73.600 355.715,73.600 356.304 C 73.600 356.502,74.050 356.906,74.600 357.200 C 75.150 357.494,75.600 357.885,75.600 358.068 C 75.600 358.250,75.888 358.400,76.240 358.400 C 76.591 358.400,77.383 358.940,78.000 359.600 C 78.617 360.260,79.337 360.800,79.600 360.800 C 79.863 360.800,80.558 361.295,81.143 361.900 C 81.729 362.505,82.443 363.049,82.731 363.109 C 83.020 363.169,83.668 363.664,84.174 364.209 C 84.679 364.754,85.346 365.200,85.658 365.200 C 85.969 365.200,86.483 365.560,86.800 366.000 C 87.117 366.440,87.657 366.800,88.000 366.800 C 88.343 366.800,88.883 367.160,89.200 367.600 C 89.517 368.040,90.097 368.400,90.488 368.400 C 90.880 368.400,91.200 368.580,91.200 368.800 C 91.200 369.020,91.470 369.200,91.800 369.200 C 92.130 369.200,92.400 369.380,92.400 369.600 C 92.400 369.820,92.720 370.000,93.112 370.000 C 93.503 370.000,94.083 370.360,94.400 370.800 C 94.717 371.240,95.297 371.600,95.688 371.600 C 96.080 371.600,96.400 371.870,96.400 372.200 C 96.400 372.533,96.756 372.800,97.200 372.800 C 97.640 372.800,98.000 372.980,98.000 373.200 C 98.000 373.420,98.326 373.600,98.725 373.600 C 99.123 373.600,99.836 373.960,100.308 374.400 C 100.780 374.840,101.444 375.200,101.783 375.200 C 102.122 375.200,102.400 375.380,102.400 375.600 C 102.400 375.820,102.760 376.000,103.200 376.000 C 103.640 376.000,104.000 376.180,104.000 376.400 C 104.000 376.620,104.360 376.800,104.800 376.800 C 105.240 376.800,105.600 376.980,105.600 377.200 C 105.600 377.420,105.960 377.600,106.400 377.600 C 106.840 377.600,107.200 377.780,107.200 378.000 C 107.200 378.220,107.650 378.400,108.200 378.400 C 108.750 378.400,109.200 378.580,109.200 378.800 C 109.200 379.020,109.560 379.200,110.000 379.200 C 110.440 379.200,110.800 379.405,110.800 379.656 C 110.800 380.328,112.068 381.173,113.100 381.187 C 113.595 381.194,114.000 381.380,114.000 381.600 C 114.000 381.820,114.349 382.000,114.776 382.000 C 115.203 382.000,115.664 382.180,115.800 382.400 C 115.936 382.620,116.397 382.800,116.824 382.800 C 117.251 382.800,117.600 382.980,117.600 383.200 C 117.600 383.420,117.960 383.600,118.400 383.600 C 118.840 383.600,119.200 383.780,119.200 384.000 C 119.200 384.220,119.560 384.400,120.000 384.400 C 120.440 384.400,120.800 384.580,120.800 384.800 C 120.800 385.020,121.340 385.200,122.000 385.200 C 122.660 385.200,123.200 385.380,123.200 385.600 C 123.200 385.820,123.650 386.000,124.200 386.000 C 124.750 386.000,125.200 386.180,125.200 386.400 C 125.200 386.620,125.740 386.800,126.400 386.800 C 127.060 386.800,127.600 386.980,127.600 387.200 C 127.600 387.420,127.938 387.600,128.351 387.600 C 128.764 387.600,129.326 387.870,129.600 388.200 C 129.874 388.530,130.526 388.800,131.049 388.800 C 131.572 388.800,132.000 388.980,132.000 389.200 C 132.000 389.420,132.540 389.600,133.200 389.600 C 133.860 389.600,134.400 389.780,134.400 390.000 C 134.400 390.220,134.940 390.400,135.600 390.400 C 136.260 390.400,136.800 390.580,136.800 390.800 C 136.800 391.020,137.340 391.200,138.000 391.200 C 138.660 391.200,139.200 391.380,139.200 391.600 C 139.200 391.820,139.931 392.000,140.824 392.000 C 141.804 392.000,142.349 392.158,142.200 392.400 C 142.051 392.642,142.596 392.800,143.576 392.800 C 144.469 392.800,145.200 392.980,145.200 393.200 C 145.200 393.420,146.010 393.600,147.000 393.600 C 147.990 393.600,148.800 393.780,148.800 394.000 C 148.800 394.220,149.520 394.400,150.400 394.400 C 151.280 394.400,152.000 394.580,152.000 394.800 C 152.000 395.020,152.643 395.200,153.429 395.200 C 154.214 395.200,155.127 395.470,155.457 395.800 C 155.787 396.130,156.674 396.400,157.429 396.400 C 158.183 396.400,158.800 396.580,158.800 396.800 C 158.800 397.022,159.859 397.200,161.176 397.200 C 162.483 397.200,163.664 397.380,163.800 397.600 C 163.936 397.820,164.937 398.000,166.024 398.000 C 167.111 398.000,168.000 398.180,168.000 398.400 C 168.000 398.635,169.389 398.800,171.367 398.800 C 173.704 398.800,174.784 398.953,174.900 399.300 C 175.031 399.693,180.489 399.800,200.400 399.800 C 220.311 399.800,225.769 399.693,225.900 399.300 C 226.016 398.953,227.096 398.800,229.433 398.800 C 231.411 398.800,232.800 398.635,232.800 398.400 C 232.800 398.180,233.689 398.000,234.776 398.000 C 235.863 398.000,236.864 397.820,237.000 397.600 C 237.136 397.380,238.139 397.200,239.229 397.200 C 240.319 397.200,241.523 397.031,241.905 396.824 C 242.690 396.400,244.845 395.835,245.300 395.934 C 245.465 395.970,245.600 395.820,245.600 395.600 C 245.600 395.380,246.331 395.200,247.224 395.200 C 248.204 395.200,248.749 395.042,248.600 394.800 C 248.449 394.556,249.063 394.400,250.176 394.400 C 251.179 394.400,252.000 394.220,252.000 394.000 C 252.000 393.780,252.810 393.600,253.800 393.600 C 254.790 393.600,255.600 393.420,255.600 393.200 C 255.600 392.980,256.140 392.800,256.800 392.800 C 257.460 392.800,258.000 392.620,258.000 392.400 C 258.000 392.180,258.709 392.000,259.576 392.000 C 260.443 392.000,261.264 391.820,261.400 391.600 C 261.536 391.380,261.997 391.200,262.424 391.200 C 262.851 391.200,263.200 391.020,263.200 390.800 C 263.200 390.580,263.740 390.400,264.400 390.400 C 265.060 390.400,265.600 390.220,265.600 390.000 C 265.600 389.780,266.140 389.600,266.800 389.600 C 267.460 389.600,268.000 389.420,268.000 389.200 C 268.000 388.980,268.546 388.800,269.213 388.800 C 269.921 388.800,270.521 388.551,270.655 388.200 C 270.787 387.858,271.383 387.600,272.043 387.600 C 272.679 387.600,273.200 387.420,273.200 387.200 C 273.200 386.980,273.560 386.800,274.000 386.800 C 274.440 386.800,274.800 386.620,274.800 386.400 C 274.800 386.180,275.329 386.000,275.976 386.000 C 276.623 386.000,277.264 385.820,277.400 385.600 C 277.536 385.380,277.997 385.200,278.424 385.200 C 278.851 385.200,279.200 385.020,279.200 384.800 C 279.200 384.580,279.560 384.400,280.000 384.400 C 280.440 384.400,280.800 384.220,280.800 384.000 C 280.800 383.780,281.126 383.600,281.525 383.600 C 281.924 383.600,282.995 383.240,283.906 382.800 C 284.816 382.360,285.840 382.000,286.181 382.000 C 286.521 382.000,286.800 381.820,286.800 381.600 C 286.800 381.380,287.083 381.200,287.429 381.200 C 287.774 381.200,288.308 380.975,288.615 380.700 C 290.002 379.456,290.406 379.200,290.983 379.200 C 291.322 379.200,291.600 379.020,291.600 378.800 C 291.600 378.580,292.050 378.400,292.600 378.400 C 293.150 378.400,293.600 378.220,293.600 378.000 C 293.600 377.780,293.960 377.600,294.400 377.600 C 294.840 377.600,295.200 377.420,295.200 377.200 C 295.200 376.980,295.436 376.800,295.725 376.800 C 296.013 376.800,296.636 376.440,297.108 376.000 C 297.580 375.560,298.244 375.200,298.583 375.200 C 298.922 375.200,299.200 375.020,299.200 374.800 C 299.200 374.580,299.434 374.400,299.720 374.400 C 300.456 374.400,302.393 373.459,302.397 373.100 C 302.399 372.935,302.670 372.800,303.000 372.800 C 303.330 372.800,303.600 372.530,303.600 372.200 C 303.600 371.867,303.956 371.600,304.400 371.600 C 304.840 371.600,305.200 371.420,305.200 371.200 C 305.200 370.980,305.520 370.800,305.912 370.800 C 306.303 370.800,306.883 370.440,307.200 370.000 C 307.517 369.560,308.063 369.200,308.413 369.200 C 308.763 369.200,309.436 368.840,309.908 368.400 C 310.380 367.960,311.004 367.600,311.295 367.600 C 311.586 367.600,312.083 367.240,312.400 366.800 C 312.717 366.360,313.209 366.000,313.492 366.000 C 313.775 366.000,314.572 365.460,315.263 364.800 C 315.954 364.140,316.664 363.600,316.841 363.600 C 317.019 363.600,317.614 363.150,318.164 362.600 C 318.714 362.050,319.325 361.600,319.522 361.600 C 319.720 361.600,320.406 361.105,321.048 360.500 C 321.689 359.895,322.678 359.159,323.246 358.865 C 324.693 358.115,326.400 356.593,326.400 356.053 C 326.400 355.804,326.682 355.600,327.026 355.600 C 327.370 355.600,328.529 354.700,329.600 353.600 C 330.671 352.500,331.793 351.600,332.093 351.600 C 332.393 351.600,334.276 349.890,336.276 347.800 C 338.277 345.710,340.028 344.000,340.167 344.000 C 340.496 344.000,344.000 340.499,344.000 340.171 C 344.000 340.034,345.530 338.452,347.400 336.656 C 349.270 334.860,350.800 333.184,350.800 332.930 C 350.800 332.677,351.880 331.373,353.200 330.032 C 354.520 328.692,355.600 327.326,355.600 326.997 C 355.600 326.669,355.804 326.400,356.053 326.400 C 356.593 326.400,358.115 324.693,358.865 323.246 C 359.159 322.678,359.895 321.689,360.500 321.048 C 361.105 320.406,361.600 319.720,361.600 319.522 C 361.600 319.325,362.050 318.714,362.600 318.164 C 363.150 317.614,363.600 317.019,363.600 316.841 C 363.600 316.664,364.140 315.954,364.800 315.263 C 365.460 314.572,366.000 313.775,366.000 313.492 C 366.000 313.209,366.360 312.717,366.800 312.400 C 367.240 312.083,367.600 311.586,367.600 311.295 C 367.600 311.004,367.960 310.380,368.400 309.908 C 368.840 309.436,369.200 308.763,369.200 308.413 C 369.200 308.063,369.560 307.517,370.000 307.200 C 370.440 306.883,370.800 306.303,370.800 305.912 C 370.800 305.520,370.980 305.200,371.200 305.200 C 371.420 305.200,371.600 304.840,371.600 304.400 C 371.600 303.956,371.867 303.600,372.200 303.600 C 372.530 303.600,372.800 303.330,372.800 303.000 C 372.800 302.670,372.935 302.399,373.100 302.397 C 373.459 302.393,374.400 300.456,374.400 299.720 C 374.400 299.434,374.580 299.200,374.800 299.200 C 375.020 299.200,375.200 298.922,375.200 298.583 C 375.200 298.244,375.560 297.580,376.000 297.108 C 376.440 296.636,376.800 296.013,376.800 295.725 C 376.800 295.436,376.980 295.200,377.200 295.200 C 377.420 295.200,377.600 294.840,377.600 294.400 C 377.600 293.960,377.780 293.600,378.000 293.600 C 378.220 293.600,378.400 293.150,378.400 292.600 C 378.400 292.050,378.580 291.600,378.800 291.600 C 379.020 291.600,379.200 291.322,379.200 290.983 C 379.200 290.406,379.456 290.002,380.700 288.615 C 380.975 288.308,381.200 287.774,381.200 287.429 C 381.200 287.083,381.336 286.800,381.503 286.800 C 381.834 286.800,382.800 283.976,382.800 283.006 C 382.800 282.673,382.980 282.400,383.200 282.400 C 383.420 282.400,383.600 282.040,383.600 281.600 C 383.600 281.160,383.780 280.800,384.000 280.800 C 384.220 280.800,384.400 280.440,384.400 280.000 C 384.400 279.560,384.580 279.200,384.800 279.200 C 385.020 279.200,385.200 278.851,385.200 278.424 C 385.200 277.997,385.380 277.536,385.600 277.400 C 385.820 277.264,386.000 276.623,386.000 275.976 C 386.000 275.329,386.180 274.800,386.400 274.800 C 386.620 274.800,386.800 274.440,386.800 274.000 C 386.800 273.560,386.980 273.200,387.200 273.200 C 387.420 273.200,387.600 272.679,387.600 272.043 C 387.600 271.383,387.858 270.787,388.200 270.655 C 388.551 270.521,388.800 269.921,388.800 269.213 C 388.800 268.546,388.980 268.000,389.200 268.000 C 389.420 268.000,389.600 267.460,389.600 266.800 C 389.600 266.140,389.780 265.600,390.000 265.600 C 390.220 265.600,390.400 265.060,390.400 264.400 C 390.400 263.740,390.580 263.200,390.800 263.200 C 391.020 263.200,391.200 262.660,391.200 262.000 C 391.200 261.340,391.380 260.800,391.600 260.800 C 391.820 260.800,392.000 260.170,392.000 259.400 C 392.000 258.630,392.180 258.000,392.400 258.000 C 392.620 258.000,392.800 257.280,392.800 256.400 C 392.800 255.520,392.980 254.800,393.200 254.800 C 393.420 254.800,393.600 254.170,393.600 253.400 C 393.600 252.630,393.780 252.000,394.000 252.000 C 394.220 252.000,394.400 251.280,394.400 250.400 C 394.400 249.520,394.580 248.800,394.800 248.800 C 395.020 248.800,395.200 248.080,395.200 247.200 C 395.200 246.320,395.391 245.600,395.624 245.600 C 395.857 245.600,395.944 245.432,395.817 245.228 C 395.691 245.023,395.770 244.742,395.993 244.604 C 396.217 244.466,396.400 243.643,396.400 242.776 C 396.400 241.909,396.580 241.200,396.800 241.200 C 397.020 241.200,397.200 240.311,397.200 239.224 C 397.200 238.137,397.380 237.136,397.600 237.000 C 397.820 236.864,398.000 235.683,398.000 234.376 C 398.000 233.059,398.178 232.000,398.400 232.000 C 398.631 232.000,398.800 230.744,398.800 229.033 C 398.800 227.016,398.960 226.013,399.300 225.900 C 400.032 225.656,400.032 174.344,399.300 174.100 C 398.960 173.987,398.800 172.984,398.800 170.967 C 398.800 169.256,398.631 168.000,398.400 168.000 C 398.178 168.000,398.000 166.941,398.000 165.624 C 398.000 164.317,397.820 163.136,397.600 163.000 C 397.380 162.864,397.200 161.863,397.200 160.776 C 397.200 159.689,397.020 158.800,396.800 158.800 C 396.580 158.800,396.400 158.183,396.400 157.429 C 396.400 156.674,396.130 155.787,395.800 155.457 C 395.439 155.097,395.200 154.118,395.200 153.005 C 395.200 151.872,395.045 151.249,394.800 151.400 C 394.556 151.551,394.400 150.937,394.400 149.824 C 394.400 148.821,394.220 148.000,394.000 148.000 C 393.780 148.000,393.600 147.370,393.600 146.600 C 393.600 145.830,393.420 145.200,393.200 145.200 C 392.980 145.200,392.800 144.480,392.800 143.600 C 392.800 142.720,392.620 142.000,392.400 142.000 C 392.180 142.000,392.000 141.471,392.000 140.824 C 392.000 140.177,391.820 139.536,391.600 139.400 C 391.380 139.264,391.200 138.623,391.200 137.976 C 391.200 137.329,391.020 136.800,390.800 136.800 C 390.580 136.800,390.400 136.260,390.400 135.600 C 390.400 134.940,390.220 134.400,390.000 134.400 C 389.780 134.400,389.600 133.860,389.600 133.200 C 389.600 132.540,389.420 132.000,389.200 132.000 C 388.980 132.000,388.800 131.454,388.800 130.787 C 388.800 130.079,388.551 129.479,388.200 129.345 C 387.870 129.218,387.600 128.774,387.600 128.357 C 387.600 127.941,387.420 127.600,387.200 127.600 C 386.980 127.600,386.800 127.060,386.800 126.400 C 386.800 125.740,386.620 125.200,386.400 125.200 C 386.180 125.200,386.000 124.750,386.000 124.200 C 386.000 123.650,385.820 123.200,385.600 123.200 C 385.380 123.200,385.200 122.660,385.200 122.000 C 385.200 121.340,385.020 120.800,384.800 120.800 C 384.580 120.800,384.400 120.440,384.400 120.000 C 384.400 119.560,384.220 119.200,384.000 119.200 C 383.780 119.200,383.600 118.840,383.600 118.400 C 383.600 117.960,383.420 117.600,383.200 117.600 C 382.980 117.600,382.800 117.251,382.800 116.824 C 382.800 116.397,382.620 115.936,382.400 115.800 C 382.180 115.664,382.000 115.023,382.000 114.376 C 382.000 113.729,381.820 113.200,381.600 113.200 C 381.380 113.200,381.200 112.917,381.200 112.571 C 381.200 112.226,380.975 111.692,380.700 111.385 C 379.456 109.998,379.200 109.594,379.200 109.017 C 379.200 108.678,379.020 108.400,378.800 108.400 C 378.580 108.400,378.400 108.130,378.400 107.800 C 378.400 107.470,378.220 107.200,378.000 107.200 C 377.780 107.200,377.600 106.840,377.600 106.400 C 377.600 105.960,377.420 105.600,377.200 105.600 C 376.980 105.600,376.800 105.240,376.800 104.800 C 376.800 104.360,376.620 104.000,376.400 104.000 C 376.180 104.000,376.000 103.640,376.000 103.200 C 376.000 102.760,375.820 102.400,375.600 102.400 C 375.380 102.400,375.200 102.040,375.200 101.600 C 375.200 101.160,375.020 100.800,374.800 100.800 C 374.580 100.800,374.400 100.474,374.400 100.075 C 374.400 99.677,374.040 98.964,373.600 98.492 C 373.160 98.020,372.800 97.356,372.800 97.017 C 372.800 96.678,372.530 96.400,372.200 96.400 C 371.870 96.400,371.600 96.080,371.600 95.688 C 371.600 95.297,371.240 94.717,370.800 94.400 C 370.360 94.083,370.000 93.503,370.000 93.112 C 370.000 92.720,369.820 92.400,369.600 92.400 C 369.380 92.400,369.200 92.130,369.200 91.800 C 369.200 91.470,369.020 91.200,368.800 91.200 C 368.580 91.200,368.400 90.880,368.400 90.488 C 368.400 90.097,368.040 89.517,367.600 89.200 C 367.160 88.883,366.800 88.343,366.800 88.000 C 366.800 87.657,366.440 87.117,366.000 86.800 C 365.560 86.483,365.200 85.969,365.200 85.658 C 365.200 85.346,364.750 84.675,364.200 84.165 C 363.650 83.655,363.200 83.032,363.200 82.780 C 363.200 82.527,362.660 81.817,362.000 81.200 C 361.340 80.583,360.800 79.863,360.800 79.600 C 360.800 79.337,360.260 78.617,359.600 78.000 C 358.940 77.383,358.400 76.591,358.400 76.240 C 358.400 75.888,358.250 75.600,358.068 75.600 C 357.885 75.600,357.494 75.150,357.200 74.600 C 356.906 74.050,356.502 73.600,356.304 73.600 C 355.715 73.600,354.800 72.508,354.800 71.805 C 354.800 71.446,354.620 71.264,354.400 71.400 C 354.180 71.536,354.000 71.451,354.000 71.210 C 354.000 70.970,353.415 70.164,352.700 69.420 C 350.609 67.244,349.200 65.604,349.200 65.348 C 349.200 65.217,348.030 63.974,346.600 62.585 C 345.170 61.197,344.000 59.953,344.000 59.820 C 344.000 59.506,340.494 56.000,340.180 56.000 C 340.047 56.000,338.803 54.830,337.415 53.400 C 336.026 51.970,334.783 50.800,334.652 50.800 C 334.396 50.800,332.756 49.391,330.580 47.300 C 329.836 46.585,329.030 46.000,328.790 46.000 C 328.549 46.000,328.464 45.820,328.600 45.600 C 328.736 45.380,328.554 45.200,328.195 45.200 C 327.492 45.200,326.400 44.285,326.400 43.696 C 326.400 43.498,325.950 43.094,325.400 42.800 C 324.850 42.506,324.400 42.115,324.400 41.932 C 324.400 41.750,324.112 41.600,323.760 41.600 C 323.409 41.600,322.617 41.060,322.000 40.400 C 321.383 39.740,320.663 39.200,320.400 39.200 C 320.137 39.200,319.442 38.705,318.857 38.100 C 318.271 37.495,317.557 36.951,317.269 36.891 C 316.980 36.831,316.332 36.336,315.826 35.791 C 315.321 35.246,314.654 34.800,314.342 34.800 C 314.031 34.800,313.517 34.440,313.200 34.000 C 312.883 33.560,312.343 33.200,312.000 33.200 C 311.657 33.200,311.117 32.840,310.800 32.400 C 310.483 31.960,309.903 31.600,309.512 31.600 C 309.120 31.600,308.800 31.420,308.800 31.200 C 308.800 30.980,308.530 30.800,308.200 30.800 C 307.870 30.800,307.600 30.620,307.600 30.400 C 307.600 30.180,307.280 30.000,306.888 30.000 C 306.497 30.000,305.917 29.640,305.600 29.200 C 305.283 28.760,304.703 28.400,304.312 28.400 C 303.920 28.400,303.600 28.130,303.600 27.800 C 303.600 27.467,303.244 27.200,302.800 27.200 C 302.360 27.200,302.000 27.020,302.000 26.800 C 302.000 26.580,301.674 26.400,301.275 26.400 C 300.877 26.400,300.164 26.040,299.692 25.600 C 299.220 25.160,298.556 24.800,298.217 24.800 C 297.878 24.800,297.600 24.620,297.600 24.400 C 297.600 24.180,297.240 24.000,296.800 24.000 C 296.360 24.000,296.000 23.820,296.000 23.600 C 296.000 23.380,295.640 23.200,295.200 23.200 C 294.760 23.200,294.400 23.020,294.400 22.800 C 294.400 22.580,294.040 22.400,293.600 22.400 C 293.160 22.400,292.800 22.220,292.800 22.000 C 292.800 21.780,292.350 21.600,291.800 21.600 C 291.250 21.600,290.800 21.420,290.800 21.200 C 290.800 20.980,290.440 20.800,290.000 20.800 C 289.556 20.800,289.200 20.533,289.200 20.200 C 289.200 19.867,288.844 19.600,288.400 19.600 C 287.960 19.600,287.600 19.420,287.600 19.200 C 287.600 18.980,287.240 18.800,286.800 18.800 C 286.360 18.800,286.000 18.620,286.000 18.400 C 286.000 18.180,285.651 18.000,285.224 18.000 C 284.797 18.000,284.336 17.820,284.200 17.600 C 284.064 17.380,283.603 17.200,283.176 17.200 C 282.749 17.200,282.400 17.020,282.400 16.800 C 282.400 16.580,282.040 16.400,281.600 16.400 C 281.160 16.400,280.800 16.220,280.800 16.000 C 280.800 15.780,280.440 15.600,280.000 15.600 C 279.560 15.600,279.200 15.420,279.200 15.200 C 279.200 14.980,278.660 14.800,278.000 14.800 C 277.340 14.800,276.800 14.620,276.800 14.400 C 276.800 14.180,276.350 14.000,275.800 14.000 C 275.250 14.000,274.800 13.820,274.800 13.600 C 274.800 13.380,274.260 13.200,273.600 13.200 C 272.940 13.200,272.400 13.020,272.400 12.800 C 272.400 12.580,271.879 12.400,271.243 12.400 C 270.583 12.400,269.987 12.142,269.855 11.800 C 269.729 11.470,269.259 11.200,268.813 11.200 C 268.366 11.200,268.000 11.020,268.000 10.800 C 268.000 10.580,267.460 10.400,266.800 10.400 C 266.140 10.400,265.600 10.220,265.600 10.000 C 265.600 9.780,265.060 9.600,264.400 9.600 C 263.740 9.600,263.200 9.420,263.200 9.200 C 263.200 8.980,262.671 8.800,262.024 8.800 C 261.377 8.800,260.736 8.620,260.600 8.400 C 260.464 8.180,259.643 8.000,258.776 8.000 C 257.909 8.000,257.200 7.820,257.200 7.600 C 257.200 7.380,256.660 7.200,256.000 7.200 C 255.340 7.200,254.800 7.020,254.800 6.800 C 254.800 6.580,253.990 6.400,253.000 6.400 C 252.010 6.400,251.200 6.220,251.200 6.000 C 251.200 5.780,250.480 5.600,249.600 5.600 C 248.720 5.600,248.000 5.420,248.000 5.200 C 248.000 4.980,247.357 4.800,246.571 4.800 C 245.786 4.800,244.873 4.530,244.543 4.200 C 244.213 3.870,243.336 3.600,242.595 3.600 C 241.854 3.600,241.136 3.420,241.000 3.200 C 240.864 2.980,239.683 2.800,238.376 2.800 C 237.059 2.800,236.000 2.622,236.000 2.400 C 236.000 2.180,235.100 2.000,234.000 2.000 C 232.900 2.000,232.000 1.820,232.000 1.600 C 232.000 1.365,230.611 1.200,228.633 1.200 C 226.372 1.200,225.214 1.043,225.107 0.720 C 224.948 0.243,188.828 -0.102,178.300 0.274 M170.298 68.426 C 186.421 85.414,213.379 85.155,228.558 67.865 C 231.087 64.984,231.409 64.887,234.800 65.984 C 235.350 66.162,236.610 66.534,237.600 66.810 C 247.411 69.553,262.763 76.190,269.903 80.776 L 272.405 82.383 272.146 86.341 C 270.700 108.404,288.495 127.200,311.001 127.382 C 318.139 127.440,317.391 127.069,320.111 131.896 C 325.728 141.865,330.354 152.932,333.195 163.200 C 333.469 164.190,333.852 165.522,334.047 166.160 C 334.630 168.074,334.462 168.741,333.107 169.897 C 314.482 185.787,313.591 213.169,331.177 229.253 C 334.485 232.278,334.717 232.748,334.008 234.972 C 333.793 235.647,333.230 237.550,332.758 239.200 C 329.787 249.576,325.007 260.806,319.688 269.900 L 317.524 273.600 311.662 273.606 C 288.918 273.629,270.985 291.961,272.119 314.028 C 272.378 319.061,272.576 318.663,268.661 320.977 C 260.680 325.695,249.505 330.621,240.800 333.258 C 231.493 336.078,230.894 336.123,229.353 334.103 C 214.943 315.210,185.671 315.243,168.850 334.170 C 167.437 335.759,165.598 335.955,162.684 334.826 C 162.198 334.637,160.990 334.260,160.000 333.988 C 150.267 331.310,135.900 325.016,127.600 319.794 L 126.200 318.913 126.161 313.156 C 126.030 293.770,113.451 278.123,94.854 274.211 C 93.047 273.831,89.841 273.600,86.379 273.600 L 80.810 273.600 79.729 271.900 C 75.645 265.476,68.373 249.287,66.388 242.200 C 66.203 241.540,65.595 239.380,65.038 237.400 C 63.652 232.479,63.552 232.806,67.730 228.682 C 84.483 212.147,83.362 183.873,65.412 170.182 C 63.912 169.038,63.665 168.003,64.358 165.760 C 64.555 165.122,65.112 163.250,65.596 161.600 C 68.831 150.571,74.948 136.550,79.550 129.615 L 81.000 127.429 87.400 127.369 C 110.074 127.157,127.064 109.015,126.316 85.816 L 126.200 82.232 128.200 80.896 C 131.170 78.913,141.947 73.590,147.200 71.513 C 153.425 69.052,155.393 68.395,164.200 65.837 C 167.120 64.988,166.978 64.928,170.298 68.426 M190.800 122.256 C 190.250 122.336,188.450 122.596,186.800 122.833 C 161.940 126.398,138.246 144.321,128.354 167.042 C 127.885 168.119,127.152 169.781,126.724 170.736 C 118.931 188.145,118.641 212.337,126.016 229.800 C 145.876 276.831,201.760 293.789,243.600 265.482 C 270.012 247.613,283.724 211.654,275.586 181.600 C 266.830 149.264,241.423 126.725,209.080 122.602 C 204.874 122.066,193.555 121.851,190.800 122.256 M221.741 134.410 C 228.799 136.745,239.276 142.542,239.521 144.249 C 239.617 144.924,238.985 145.486,236.321 147.094 C 234.494 148.196,226.970 152.739,219.600 157.191 C 212.230 161.642,199.118 169.540,190.463 174.742 C 181.808 179.944,174.198 184.734,173.553 185.386 C 169.999 188.980,171.129 195.339,175.715 197.559 C 179.480 199.381,180.243 199.101,193.551 191.022 C 200.972 186.517,202.146 185.830,204.814 184.434 C 217.072 178.020,233.541 181.627,241.978 192.573 C 249.181 201.919,250.379 214.280,245.117 224.970 C 243.646 227.960,240.556 232.270,238.931 233.600 C 236.029 235.974,233.559 237.568,222.200 244.399 C 215.160 248.632,208.750 252.479,207.955 252.948 C 207.161 253.417,201.209 256.995,194.730 260.900 C 187.643 265.171,182.542 268.000,181.927 268.000 C 177.925 268.000,159.931 259.570,159.011 257.264 C 158.676 256.423,160.311 255.196,165.800 252.172 C 166.240 251.929,170.110 249.609,174.400 247.017 C 185.769 240.145,204.546 228.833,214.200 223.039 C 223.381 217.529,225.327 215.867,225.759 213.169 C 226.659 207.538,222.417 202.919,217.122 203.766 C 215.422 204.038,215.230 204.139,207.200 209.000 C 204.010 210.931,200.860 212.819,200.200 213.195 C 199.540 213.572,197.740 214.655,196.200 215.602 C 185.651 222.089,175.292 222.601,164.733 217.156 C 148.372 208.720,144.030 186.110,155.944 171.386 C 158.827 167.823,164.085 164.228,180.200 154.801 C 180.860 154.415,185.630 151.533,190.800 148.397 C 201.556 141.872,203.726 140.563,205.400 139.592 C 206.060 139.208,208.670 137.618,211.200 136.056 C 216.511 132.779,216.713 132.747,221.741 134.410 " stroke="none" fill="#e44c14" fill-rule="evenodd"></path><path id="path2" d="M164.200 65.837 C 155.393 68.395,153.425 69.052,147.200 71.513 C 141.947 73.590,131.170 78.913,128.200 80.896 L 126.200 82.232 126.316 85.816 C 127.064 109.015,110.074 127.157,87.400 127.369 L 81.000 127.429 79.550 129.615 C 74.948 136.550,68.831 150.571,65.596 161.600 C 65.112 163.250,64.555 165.122,64.358 165.760 C 63.665 168.003,63.912 169.038,65.412 170.182 C 83.362 183.873,84.483 212.147,67.730 228.682 C 63.552 232.806,63.652 232.479,65.038 237.400 C 65.595 239.380,66.203 241.540,66.388 242.200 C 68.373 249.287,75.645 265.476,79.729 271.900 L 80.810 273.600 86.379 273.600 C 106.173 273.600,120.933 285.553,125.647 305.400 C 125.908 306.500,126.140 309.990,126.161 313.156 L 126.200 318.913 127.600 319.794 C 135.900 325.016,150.267 331.310,160.000 333.988 C 160.990 334.260,162.198 334.637,162.684 334.826 C 165.598 335.955,167.437 335.759,168.850 334.170 C 185.671 315.243,214.943 315.210,229.353 334.103 C 230.894 336.123,231.493 336.078,240.800 333.258 C 249.505 330.621,260.680 325.695,268.661 320.977 C 272.576 318.663,272.378 319.061,272.119 314.028 C 270.985 291.961,288.918 273.629,311.662 273.606 L 317.524 273.600 319.688 269.900 C 325.007 260.806,329.787 249.576,332.758 239.200 C 333.230 237.550,333.793 235.647,334.008 234.972 C 334.717 232.748,334.485 232.278,331.177 229.253 C 313.591 213.169,314.482 185.787,333.107 169.897 C 334.462 168.741,334.630 168.074,334.047 166.160 C 333.852 165.522,333.469 164.190,333.195 163.200 C 330.354 152.932,325.728 141.865,320.111 131.896 C 317.391 127.069,318.139 127.440,311.001 127.382 C 288.495 127.200,270.700 108.404,272.146 86.341 L 272.405 82.383 269.903 80.776 C 262.763 76.190,247.411 69.553,237.600 66.810 C 236.610 66.534,235.350 66.162,234.800 65.984 C 231.409 64.887,231.087 64.984,228.558 67.865 C 213.379 85.155,186.421 85.414,170.298 68.426 C 166.978 64.928,167.120 64.988,164.200 65.837 M170.568 69.308 C 186.878 85.960,215.387 85.340,228.984 68.037 C 230.944 65.541,230.998 65.522,233.861 66.252 C 245.118 69.121,258.408 74.564,268.389 80.393 C 271.924 82.458,271.722 81.958,271.785 88.768 C 271.988 110.613,288.873 127.519,310.789 127.820 L 316.978 127.905 317.851 129.052 C 320.497 132.532,326.920 145.860,329.584 153.400 C 330.891 157.098,334.000 167.435,334.000 168.083 C 334.000 168.283,332.625 169.741,330.944 171.323 C 313.829 187.435,313.965 215.754,331.226 229.995 C 334.505 232.701,334.425 231.822,332.119 239.800 C 329.353 249.369,322.845 264.306,318.370 271.357 L 317.128 273.313 313.888 273.063 C 290.902 271.291,270.904 290.766,271.659 314.190 L 271.800 318.579 269.000 320.286 C 259.880 325.844,244.399 332.235,234.271 334.622 L 231.153 335.357 228.383 332.322 C 213.160 315.637,187.147 315.162,171.089 331.275 C 168.938 333.434,166.885 335.200,166.526 335.200 C 161.419 335.200,135.544 324.642,128.068 319.507 L 126.335 318.317 126.608 315.045 C 128.463 292.769,109.667 273.026,86.666 273.094 L 81.132 273.110 79.827 271.055 C 74.631 262.874,69.210 250.264,65.818 238.468 C 64.057 232.343,64.030 232.781,66.291 230.722 C 84.439 214.198,84.963 188.105,67.479 171.525 L 64.236 168.450 64.768 166.325 C 67.919 153.741,74.941 137.085,80.724 128.478 C 80.982 128.094,82.760 127.923,87.437 127.832 C 109.807 127.400,126.399 110.621,126.558 88.271 L 126.600 82.341 128.200 81.359 C 138.098 75.286,158.045 67.150,166.768 65.629 C 166.861 65.613,168.571 67.269,170.568 69.308 M188.614 122.058 C 132.038 129.309,101.373 195.839,132.686 243.400 C 166.229 294.349,241.456 290.829,269.155 237.014 C 298.491 180.018,252.176 113.912,188.614 122.058 M209.080 122.602 C 241.423 126.725,266.830 149.264,275.586 181.600 C 282.453 206.963,273.371 238.405,253.745 257.214 C 213.423 295.856,147.979 281.810,126.016 229.800 C 118.641 212.337,118.931 188.145,126.724 170.736 C 127.152 169.781,127.885 168.119,128.354 167.042 C 138.246 144.321,161.940 126.398,186.800 122.833 C 188.450 122.596,190.250 122.336,190.800 122.256 C 193.555 121.851,204.874 122.066,209.080 122.602 M211.200 136.056 C 208.670 137.618,206.060 139.208,205.400 139.592 C 203.726 140.563,201.556 141.872,190.800 148.397 C 185.630 151.533,180.860 154.415,180.200 154.801 C 153.969 170.145,149.930 174.672,149.318 189.417 C 148.273 214.573,174.266 229.091,196.200 215.602 C 197.740 214.655,199.540 213.572,200.200 213.195 C 200.860 212.819,204.010 210.931,207.200 209.000 C 215.230 204.139,215.422 204.038,217.122 203.766 C 222.417 202.919,226.659 207.538,225.759 213.169 C 225.327 215.867,223.381 217.529,214.200 223.039 C 204.546 228.833,185.769 240.145,174.400 247.017 C 170.110 249.609,166.240 251.929,165.800 252.172 C 160.311 255.196,158.676 256.423,159.011 257.264 C 159.931 259.570,177.925 268.000,181.927 268.000 C 182.542 268.000,187.643 265.171,194.730 260.900 C 201.209 256.995,207.161 253.417,207.955 252.948 C 218.068 246.983,235.357 236.422,236.599 235.451 C 239.432 233.234,239.635 233.036,241.611 230.570 C 245.781 225.364,248.401 218.016,248.400 211.523 C 248.397 194.362,235.401 181.399,218.200 181.400 C 209.989 181.401,208.334 182.047,193.551 191.022 C 180.243 199.101,179.480 199.381,175.715 197.559 C 171.129 195.339,169.999 188.980,173.553 185.386 C 174.198 184.734,181.808 179.944,190.463 174.742 C 199.118 169.540,212.230 161.642,219.600 157.191 C 226.970 152.739,234.494 148.196,236.321 147.094 C 241.190 144.156,240.431 143.074,229.800 137.802 C 219.198 132.545,217.195 132.357,211.200 136.056 M221.054 134.640 C 226.775 136.531,236.875 141.694,238.614 143.616 C 239.561 144.662,239.548 144.673,233.000 148.611 C 230.140 150.331,221.320 155.641,213.400 160.413 C 205.480 165.184,193.690 172.284,187.200 176.191 C 180.710 180.099,174.813 183.734,174.096 184.271 C 168.057 188.790,171.551 198.800,179.168 198.800 C 181.352 198.800,181.579 198.685,193.813 191.359 C 208.675 182.458,211.951 181.251,219.985 181.712 C 245.385 183.169,257.270 214.507,239.208 232.400 C 235.709 235.867,184.882 267.165,182.167 267.526 C 178.714 267.984,159.298 258.811,159.680 256.902 C 159.746 256.573,164.930 253.214,171.200 249.438 C 230.290 213.850,224.335 217.614,225.559 215.085 C 228.178 209.675,224.196 203.178,218.281 203.209 C 216.016 203.221,214.891 203.786,204.000 210.390 C 189.999 218.878,187.633 219.886,180.753 220.286 C 159.825 221.506,144.233 200.903,151.094 181.096 C 154.146 172.285,157.394 168.992,171.200 160.715 C 175.050 158.406,185.130 152.325,193.600 147.200 C 215.744 133.801,216.091 133.600,217.043 133.600 C 217.519 133.600,219.324 134.068,221.054 134.640 " stroke="none" fill="#ec8b61" fill-rule="evenodd"></path><path id="path3" d="M283.200 116.600 C 283.946 117.370,284.647 118.000,284.757 118.000 C 284.867 118.000,284.346 117.370,283.600 116.600 C 282.854 115.830,282.153 115.200,282.043 115.200 C 281.933 115.200,282.454 115.830,283.200 116.600 M197.300 121.491 C 198.125 121.578,199.475 121.578,200.300 121.491 C 201.125 121.405,200.450 121.334,198.800 121.334 C 197.150 121.334,196.475 121.405,197.300 121.491 M141.781 146.100 L 140.200 147.800 141.900 146.219 C 143.481 144.748,143.784 144.400,143.481 144.400 C 143.416 144.400,142.651 145.165,141.781 146.100 M80.128 200.000 C 80.128 201.430,80.201 202.015,80.289 201.300 C 80.378 200.585,80.378 199.415,80.289 198.700 C 80.201 197.985,80.128 198.570,80.128 200.000 M247.728 211.200 C 247.728 212.630,247.801 213.215,247.889 212.500 C 247.978 211.785,247.978 210.615,247.889 209.900 C 247.801 209.185,247.728 209.770,247.728 211.200 M157.800 211.600 C 158.659 212.480,159.452 213.200,159.562 213.200 C 159.672 213.200,159.059 212.480,158.200 211.600 C 157.341 210.720,156.548 210.000,156.438 210.000 C 156.328 210.000,156.941 210.720,157.800 211.600 M143.183 256.500 C 144.841 258.266,145.200 258.584,145.200 258.283 C 145.200 258.219,144.345 257.364,143.300 256.383 L 141.400 254.600 143.183 256.500 M195.505 279.883 C 196.002 279.979,196.722 279.975,197.105 279.875 C 197.487 279.775,197.080 279.696,196.200 279.701 C 195.320 279.705,195.007 279.787,195.505 279.883 M202.305 279.883 C 202.802 279.979,203.522 279.975,203.905 279.875 C 204.287 279.775,203.880 279.696,203.000 279.701 C 202.120 279.705,201.807 279.787,202.305 279.883 M114.600 284.400 C 115.459 285.280,116.252 286.000,116.362 286.000 C 116.472 286.000,115.859 285.280,115.000 284.400 C 114.141 283.520,113.348 282.800,113.238 282.800 C 113.128 282.800,113.741 283.520,114.600 284.400 M198.500 319.476 C 198.885 319.576,199.515 319.576,199.900 319.476 C 200.285 319.375,199.970 319.293,199.200 319.293 C 198.430 319.293,198.115 319.375,198.500 319.476 " stroke="none" fill="#f4a47c" fill-rule="evenodd"></path><path id="path4" d="M164.600 66.288 C 154.115 68.845,135.257 76.756,128.264 81.531 L 126.697 82.600 126.608 88.800 C 126.285 111.147,109.089 128.000,86.612 128.000 L 81.190 128.000 79.815 130.150 C 78.414 132.339,74.123 140.713,72.194 145.022 C 69.618 150.775,66.107 161.136,64.651 167.280 C 64.423 168.243,64.771 168.723,67.843 171.680 C 84.413 187.631,84.537 212.785,68.128 229.108 C 66.077 231.147,64.400 232.888,64.400 232.976 C 64.400 233.588,67.479 243.739,68.653 247.000 C 71.638 255.286,77.042 266.757,80.234 271.580 L 81.312 273.208 84.956 272.953 C 107.481 271.373,127.302 290.627,126.785 313.585 C 126.733 315.903,126.715 318.014,126.745 318.275 C 126.845 319.141,137.524 324.827,145.245 328.125 C 150.179 330.232,158.813 333.187,163.564 334.395 L 166.929 335.250 170.008 332.066 C 186.354 315.161,212.073 315.046,227.937 331.807 L 231.225 335.280 234.113 334.582 C 244.122 332.162,257.881 326.566,267.662 320.936 C 271.815 318.546,271.611 319.005,271.747 311.742 C 272.159 289.881,289.036 273.269,311.099 273.008 C 314.453 272.968,317.267 272.860,317.353 272.768 C 320.207 269.679,328.732 250.674,331.783 240.600 C 334.248 232.461,334.391 233.241,329.545 228.367 C 313.418 212.146,314.502 184.101,331.785 170.400 C 333.946 168.687,333.980 168.286,332.425 162.769 C 329.263 151.543,323.850 138.919,318.406 130.072 L 317.188 128.092 310.494 127.895 C 288.282 127.241,272.260 111.162,271.737 89.000 C 271.560 81.491,272.317 82.614,264.624 78.464 C 255.355 73.465,241.118 67.888,233.725 66.361 L 231.272 65.855 227.736 69.469 C 211.635 85.926,185.132 85.631,169.946 68.825 C 167.368 65.972,166.868 65.735,164.600 66.288 M169.444 68.904 C 181.841 82.079,200.057 85.714,216.400 78.273 C 220.963 76.196,227.834 70.741,230.221 67.300 C 231.018 66.151,231.831 66.169,236.217 67.431 C 247.573 70.700,261.676 76.697,268.954 81.353 L 271.200 82.790 271.200 88.095 C 271.202 111.427,291.128 130.393,313.728 128.574 L 317.000 128.311 318.669 131.255 C 324.935 142.311,331.078 157.350,332.867 166.014 L 333.361 168.406 330.475 171.040 C 315.923 184.322,313.364 206.455,324.459 223.060 C 326.257 225.750,332.133 232.000,332.865 232.000 C 335.517 232.000,325.379 258.711,318.300 270.376 L 316.979 272.552 310.990 272.604 C 307.595 272.633,304.134 272.878,303.000 273.170 C 283.529 278.176,271.200 293.625,271.200 313.016 L 271.200 318.380 268.100 320.208 C 258.558 325.833,245.873 331.052,234.600 333.991 L 231.400 334.825 228.876 332.030 C 213.458 314.955,186.759 314.522,170.506 331.084 L 166.812 334.849 162.906 333.788 C 152.133 330.865,140.511 326.074,130.896 320.593 C 126.799 318.258,127.052 318.756,127.154 313.232 C 127.566 290.962,109.856 272.856,87.400 272.588 L 81.400 272.516 79.905 270.158 C 74.967 262.373,68.757 247.506,65.828 236.460 L 64.836 232.720 66.689 231.060 C 84.797 214.834,85.611 188.492,68.521 171.762 L 64.804 168.124 65.984 163.921 C 69.336 151.985,73.304 142.432,79.138 132.254 L 81.400 128.309 84.672 128.573 C 100.578 129.857,117.292 119.538,123.882 104.363 C 126.584 98.140,127.172 94.348,127.199 82.971 C 127.202 81.580,144.742 73.105,154.200 69.924 C 166.419 65.816,166.532 65.809,169.444 68.904 M192.000 121.186 C 133.114 126.046,99.706 194.823,132.411 243.863 C 152.424 273.872,188.247 287.103,222.000 276.954 C 232.215 273.882,245.069 266.655,252.129 260.015 C 253.191 259.017,254.217 258.143,254.411 258.073 C 255.860 257.550,264.464 246.438,267.481 241.193 C 300.147 184.415,257.003 115.821,192.000 121.186 M210.656 122.226 C 253.088 127.690,284.703 170.264,277.469 212.200 C 265.469 281.758,181.225 303.845,136.646 249.120 C 103.058 207.888,123.038 142.047,174.240 125.236 C 185.695 121.475,197.345 120.512,210.656 122.226 M211.200 136.681 C 205.217 140.336,176.151 157.902,168.064 162.749 C 161.105 166.921,157.853 169.542,155.440 172.923 C 141.753 192.103,153.586 218.130,176.947 220.232 C 184.479 220.910,189.064 219.227,203.836 210.364 C 214.944 203.700,215.496 203.420,217.833 203.271 C 226.567 202.713,229.732 213.688,222.288 218.719 C 221.360 219.346,207.010 228.025,190.400 238.005 C 173.790 247.985,160.064 256.342,159.897 256.575 C 158.850 258.046,171.661 264.754,179.860 267.027 L 182.320 267.709 203.860 254.781 C 238.104 234.227,237.885 234.371,241.160 230.243 C 256.744 210.595,243.090 181.815,218.200 181.847 C 210.615 181.857,208.542 182.673,194.097 191.329 C 181.193 199.062,181.727 198.800,178.865 198.800 C 171.718 198.800,168.136 189.850,173.305 184.909 C 174.017 184.229,178.920 181.069,184.200 177.888 C 189.480 174.707,201.180 167.648,210.200 162.202 C 219.220 156.755,229.435 150.596,232.900 148.515 C 236.365 146.434,239.200 144.574,239.200 144.381 C 239.200 142.543,220.499 133.555,216.800 133.616 C 216.470 133.621,213.950 135.000,211.200 136.681 M221.068 135.228 C 227.461 137.452,237.857 142.897,238.289 144.248 C 238.368 144.494,236.940 145.595,235.116 146.693 C 233.292 147.792,223.880 153.469,214.200 159.310 C 204.520 165.150,191.380 173.075,185.000 176.919 C 172.101 184.693,170.992 185.656,170.542 189.469 C 169.813 195.641,175.587 200.851,181.200 199.087 C 182.190 198.776,188.220 195.383,194.600 191.546 C 209.419 182.636,213.588 181.231,221.796 182.378 C 242.315 185.246,253.090 206.075,243.930 225.164 C 240.983 231.304,237.837 233.942,222.600 243.055 C 215.560 247.266,203.770 254.356,196.400 258.811 C 186.424 264.842,182.681 266.908,181.753 266.897 C 177.714 266.849,160.117 258.591,160.492 256.918 C 160.551 256.653,166.990 252.592,174.800 247.893 C 198.255 233.780,217.193 222.365,220.800 220.166 C 228.727 215.334,229.081 206.545,221.481 203.280 C 217.814 201.706,216.736 202.111,203.600 210.006 C 188.763 218.924,186.759 219.724,179.200 219.755 C 153.811 219.857,140.519 189.524,157.788 170.888 C 160.548 167.909,162.065 166.834,171.600 161.104 C 184.327 153.455,208.939 138.560,212.600 136.291 C 216.872 133.643,216.605 133.676,221.068 135.228 " stroke="none" fill="#f4a484" fill-rule="evenodd"></path></g></svg>